<svg xmlns="http://www.w3.org/2000/svg" xmlns:xlink="http://www.w3.org/1999/xlink" width="456" height="312" viewBox="0 0 456 312">
    <defs>
        <path id="a" d="M0 .225h8.441v8.441H0z"/>
        <path id="c" d="M.454.558h8.441V9H.454z"/>
        <path id="e" d="M.407.24H8.85v8.442H.407z"/>
        <rect id="h" width="300" height="200" x="78.107" y="100" rx="4"/>
        <filter id="g" width="110.7%" height="116%" x="-5.3%" y="-7%" filterUnits="objectBoundingBox">
            <feOffset dy="2" in="SourceAlpha" result="shadowOffsetOuter1"/>
            <feGaussianBlur in="shadowOffsetOuter1" result="shadowBlurOuter1" stdDeviation="5"/>
            <feColorMatrix in="shadowBlurOuter1" values="0 0 0 0 0 0 0 0 0 0 0 0 0 0 0 0 0 0 0.15 0"/>
        </filter>
        <rect id="j" width="282" height="77" x="28" rx="4"/>
        <filter id="i" width="109.2%" height="133.8%" x="-4.6%" y="-14.3%" filterUnits="objectBoundingBox">
            <feOffset dy="2" in="SourceAlpha" result="shadowOffsetOuter1"/>
            <feGaussianBlur in="shadowOffsetOuter1" result="shadowBlurOuter1" stdDeviation="4"/>
            <feColorMatrix in="shadowBlurOuter1" values="0 0 0 0 0 0 0 0 0 0 0 0 0 0 0 0 0 0 0.2 0"/>
        </filter>
    </defs>
    <g fill="none" fill-rule="evenodd">
        <path fill="#F5F5F9" d="M270.054 33.25l.397-.225c7.17-4.013 16.26-5.675 28.181-3.926l1.03.16c33.915 5.539 59.224 37.667 72 69.623l.733 1.868c23.794 61.72 6.615 129.254-30.312 164.047l-1.726 1.597c-57.275 52.032-146.763 39.557-195.324 10.977l-1.8-1.073c-58.747-35.505-54.15-79.36-41.6-96.812l.629-.862c20.824-28.131 48.425-24.851 76.366-30.982l.843-.187c27.644-6.172 40.615-14.37 54.73-47.079 10.795-25.019 15.68-55.479 35.853-67.126zm90.932-14.394l.39-.201c13.302-6.053 66.564 44.16 54.552 65.698l-.457.789c-15.208 25.305-44.736-20.506-54.745-49.532-3.388-9.824-2.79-14.996.26-16.754zM61.449 132.904l.533-.299c17.572-9.533 33.11 12.121 16.07 51.738l-.749 1.714c-24.725 55.58-48.633 15.59-38.144-18.385 5.852-18.957 14.251-30.127 22.29-34.768zM331.767 1.084l.138-.076c3.973-2.066 11.418 3.371 13.034 13.24l.073.466c2.233 15.2-11.43 9.377-14.507-1.228-2.074-7.159-1.027-11.083 1.262-12.402zM112.79 126.356l.493-.28c16.168-9.017 23.01 2.834 1.079 19.549l-.719.542c-23.446 17.46-19.515-6.096-5.755-16.528a46.87 46.87 0 0 1 4.902-3.283z"/>
        <g transform="translate(297 56)">
            <mask id="b" fill="#fff">
                <use xlink:href="#a"/>
            </mask>
            <path fill="#4184F3" d="M7.723 2.09A4.22 4.22 0 1 1 .718 6.8a4.22 4.22 0 0 1 7.005-4.71" mask="url(#b)"/>
        </g>
        <path fill="#4184F3" d="M334.319 38.768a4 4 0 1 1-6.638 4.464 4 4 0 0 1 6.638-4.464M324.319 88.768a3.999 3.999 0 1 1-6.637 4.464 3.999 3.999 0 0 1 6.637-4.464M354.319 68.768a3.999 3.999 0 1 1-6.637 4.464 3.999 3.999 0 0 1 6.637-4.464M384.32 47.768a4 4 0 1 1-6.639 4.463 4 4 0 0 1 6.638-4.463M414.319 27.768a3.999 3.999 0 1 1-6.637 4.464 3.999 3.999 0 0 1 6.637-4.464M345.32 118.768a4 4 0 1 1-6.64 4.463 4 4 0 0 1 6.64-4.463M375.32 98.768a4 4 0 1 1-6.64 4.463 4 4 0 0 1 6.64-4.463M405.319 77.768a4 4 0 1 1-6.638 4.464 4 4 0 0 1 6.638-4.464M435.319 57.768a4 4 0 1 1-6.637 4.463 4 4 0 0 1 6.637-4.463"/>
        <g transform="translate(387 126)">
            <mask id="d" fill="#fff">
                <use xlink:href="#c"/>
            </mask>
            <path fill="#4184F3" d="M8.177 2.424a4.22 4.22 0 1 1-7.004 4.71 4.22 4.22 0 0 1 7.004-4.71" mask="url(#d)"/>
        </g>
        <path fill="#4184F3" d="M425.32 107.768a4 4 0 1 1-6.64 4.463 4 4 0 0 1 6.64-4.463"/>
        <g transform="translate(447 86)">
            <mask id="f" fill="#fff">
                <use xlink:href="#e"/>
            </mask>
            <path fill="#4184F3" d="M8.13 2.106a4.22 4.22 0 1 1-7.004 4.71 4.22 4.22 0 0 1 7.004-4.71" mask="url(#f)"/>
        </g>
        <g fill-rule="nonzero" transform="translate(0 -38)">
            <use fill="#000" filter="url(#g)" xlink:href="#h"/>
            <use fill="#FFF" xlink:href="#h"/>
        </g>
        <g transform="translate(138 92)">
            <path fill-rule="nonzero" stroke="#9B9BAA" stroke-dasharray="4,15" stroke-linecap="round" stroke-linejoin="bevel" stroke-width="3" d="M4 27h274a4 4 0 0 1 4 4v69a4 4 0 0 1-4 4H4a4 4 0 0 1-4-4V31a4 4 0 0 1 4-4z"/>
            <g fill-rule="nonzero">
                <use fill="#000" filter="url(#i)" xlink:href="#j"/>
                <use fill="#FFF" xlink:href="#j"/>
            </g>
            <rect width="158" height="12" x="118.893" y="22" fill="#3F89D7" fill-rule="nonzero" rx="2"/>
            <rect width="77" height="12" x="118.893" y="43" fill="#D2D2D2" fill-rule="nonzero" rx="2"/>
            <g stroke="#FCB949" stroke-linecap="round" stroke-linejoin="round" stroke-width="6">
                <path d="M57.6 20h36.8c2.53 0 4.6 2.081 4.6 4.625v27.75C99 54.919 96.93 57 94.4 57H57.6c-2.53 0-4.6-2.081-4.6-4.625v-27.75C53 22.081 55.07 20 57.6 20z"/>
                <path d="M99 23.828L76 40.414 53 23.828"/>
            </g>
        </g>
        <g fill="#3F89D7">
            <path d="M106.466 37c10.557 0 19.115 8.537 19.115 19.068v61.75c0 10.062-7.813 18.283-17.716 18.998L130 173l-58.338-36.112H19.115C8.558 136.888 0 128.35 0 117.818v-61.75C0 45.538 8.558 37 19.115 37h87.351z" opacity=".104"/>
            <path d="M65.425 49c20.118 0 36.426 16.27 36.426 36.342 0 3.153-.404 6.21-1.16 9.127h-.005v.004c-4.074 15.714-18.183 26.986-35.207 26.986-19.367 0-35.1-14.723-36.37-33.724l-.02.02A36.717 36.717 0 0 1 29 85.342c0-12.53 6.357-23.58 16.028-30.113a36.387 36.387 0 0 1 5.343-2.978A36.344 36.344 0 0 1 65.425 49zM50.04 64.938l.318-.723a76.081 76.081 0 0 1-16.933 24.514l-.26.248.024.181c2.04 15.863 15.514 28.045 31.776 28.297l.515.004c14.489 0 27.076-9.519 31.178-23.065l.145-.5c-14.606-2.571-27.69-9.544-37.826-19.496-.45-.443 3.642 9.838 3.252 9.342C53.923 73.18 51.53 68.346 50.04 64.938z"/>
        </g>
        <path fill="#FCB949" d="M360.534 312c-10.557 0-19.115-8.537-19.115-19.068v-25.75c0-10.062 7.813-18.283 17.716-18.998L337 212l58.338 36.112h32.547c10.557 0 19.115 8.537 19.115 19.07v25.75c0 10.53-8.558 19.068-19.115 19.068h-67.351z"/>
        <text fill="#FFF" font-family="Inter-Regular_Black, Inter" font-size="18" font-weight="700" letter-spacing="10" transform="translate(0 -38)">
            <tspan x="366" y="314">OTP</tspan>
        </text>
        <g fill="#FFF" fill-rule="nonzero" transform="translate(356 287)">
            <circle cx="6" cy="6" r="6"/>
            <circle cx="28" cy="6" r="6"/>
            <circle cx="50" cy="6" r="6"/>
            <circle cx="72" cy="6" r="6"/>
        </g>
    </g>
</svg>
